#!OML:ASF E:\motion texture\Top Level 1\Subject 1\Session 1\male.ASF
:FULLY-SPECIFIED
:DEGREES
275
root -1.89277 18.1395 4.21495 -327.152 -71.4106 333.868
lowerback 0.0273009 6.81151 7.67585
upperback -1.32355 9.09539 2.61136
thorax -0.62957 4.45934 -1.52703
lowerneck -14.9614 -9.36695 -10.451
upperneck 12.2934 -12.4738 11.8452
head 7.66506 -5.53067 4.08923
rclavicle -2.90226e-014 -5.80451e-014
rhumerus 6.53009 17.1375 -66.5205
rradius 53.6498
rwrist 1.12845
rhand -11.5624 -43.5443
rfingers 7.12502
rthumb 14.4786 -73.0191
lclavicle -2.90226e-014 -5.80451e-014
lhumerus -46.4755 26.141 65.0175
lradius 28.3165
lwrist -22.5723
lhand -2.27858 22.2174
lfingers 7.12502
lthumb 23.4062 50.8139
rfemur -6.35419 -4.2161 34.7196
rtibia 13.5462
rfoot -11.8318 -14.769
rtoes 15.5206
lfemur -30.1156 -5.36456 -7.88581
ltibia 29.802
lfoot -6.64942 2.45106
ltoes -15.0963
276
root -2.04759 18.1276 4.22358 -325.9 -71.9883 332.779
lowerback -0.11529 6.85504 7.71103
upperback -1.38632 9.14132 2.59021
thorax -0.602897 4.4809 -1.55131
lowerneck -15.0602 -9.23173 -10.384
upperneck 12.49 -12.2942 11.7363
head 7.71308 -5.44404 4.06521
rclavicle 1.68967e-014 -7.95139e-015
rhumerus 5.31186 17.3577 -67.4742
rradius 52.7302
rwrist 1.60142
rhand -11.7255 -43.0686
rfingers 7.12502
rthumb 14.3215 -72.5547
lclavicle 1.68967e-014 -7.95139e-015
lhumerus -46.8064 26.5951 64.7385
lradius 27.6748
lwrist -23.8782
lhand -1.83678 21.9406
lfingers 7.12502
lthumb 23.8299 50.4825
rfemur -5.85558 -4.0189 34.8425
rtibia 13.4044
rfoot -12.0949 -14.3869
rtoes 15.0016
lfemur -30.3819 -5.0473 -8.04268
ltibia 28.5828
lfoot -6.53043 2.64618
ltoes -14.9685
277
root -2.20288 18.1145 4.2326 -324.551 -72.5685 331.594
lowerback -0.25279 6.89677 7.74553
upperback -1.44781 9.18517 2.56922
thorax -0.577976 4.50136 -1.57554
lowerneck -15.1623 -9.09272 -10.3083
upperneck 12.6806 -12.1097 11.6256
head 7.75891 -5.35504 4.03986
rclavicle -7.88678e-014 -3.97569e-016
rhumerus 4.09825 17.5068 -68.4602
rradius 51.6945
rwrist 2.05001
rhand -11.8923 -42.5876
rfingers 7.12502
rthumb 14.1608 -72.085
lclavicle -7.88678e-014 -3.97569e-016
lhumerus -47.1298 27.0378 64.4542
lradius 27.058
lwrist -25.1677
lhand -1.40102 21.6657
lfingers 7.12502
lthumb 24.2478 50.1525
rfemur -5.3732 -3.83142 34.9528
rtibia 13.2994
rfoot -12.358 -13.9934
rtoes 14.4651
lfemur -30.6384 -4.75384 -8.17775
ltibia 27.4008
lfoot -6.39245 2.83768
ltoes -14.8505
278
root -2.35887 18.1006 4.24199 -323.12 -73.1426 330.324
lowerback -0.384035 6.93414 7.77719
upperback -1.50647 9.22357 2.54914
thorax -0.554579 4.51912 -1.59801
lowerneck -15.2687 -8.95125 -10.2285
upperneck 12.8662 -11.9217 11.5151
head 7.80365 -5.26426 4.01433
rclavicle 2.48481e-016 8.74653e-015
rhumerus 2.89056 17.575 -69.4716
rradius 50.5464
rwrist 2.47468
rhand -12.0686 -42.1119
rfingers 7.12502
rthumb 13.9909 -71.6211
lclavicle 2.48481e-016 8.74653e-015
lhumerus -47.4441 27.4667 64.1676
lradius 26.4699
lwrist -26.4322
lhand -0.963664 21.3887
lfingers 7.12502
lthumb 24.667 49.8189
rfemur -4.90038 -3.65598 35.0487
rtibia 13.2271
rfoot -12.6193 -13.5948
rtoes 13.91
lfemur -30.8814 -4.49323 -8.29168
ltibia 26.2614
lfoot -6.22385 3.01629
ltoes -14.7303
279
root -2.51561 18.0859 4.25174 -321.591 -73.7144 328.954
lowerback -0.510512 6.96901 7.80461
upperback -1.56296 9.25895 2.52906
thorax -0.532448 4.53541 -1.61872
lowerneck -15.379 -8.80762 -10.1459
upperneck 13.0464 -11.7308 11.407
head 7.84744 -5.17186 3.98948
rclavicle 3.02153e-014 -2.46493e-014
rhumerus 1.6892 17.552 -70.5049
rradius 49.2907
rwrist 2.87664
rhand -12.2574 -41.6437
rfingers 7.12502
rthumb 13.8089 -71.1653
lclavicle 3.02153e-014 -2.46493e-014
lhumerus -47.748 27.8795 63.8808
lradius 25.9117
lwrist -27.6656
lhand -0.530979 21.1122
lfingers 7.12502
lthumb 25.0817 49.4851
rfemur -4.44226 -3.48888 35.1282
rtibia 13.1931
rfoot -12.8776 -13.1873
rtoes 13.3339
lfemur -31.1122 -4.26552 -8.38294
ltibia 25.1711
lfoot -6.0211 3.19798
ltoes -14.5991
280
root -2.67322 18.0706 4.26183 -319.961 -74.281 327.482
lowerback -0.63156 7.00041 7.82692
upperback -1.61759 9.29013 2.50859
thorax -0.512439 4.54963 -1.63778
lowerneck -15.4936 -8.66181 -10.0596
upperneck 13.2217 -11.537 11.3006
head 7.89042 -5.0779 3.9649
rclavicle -1.89342e-014 -3.93594e-014
rhumerus 0.494885 17.4306 -71.5535
rradius 47.9339
rwrist 3.25378
rhand -12.4663 -41.1877
rfingers 7.12502
rthumb 13.6077 -70.723
lclavicle -1.89342e-014 -3.93594e-014
lhumerus -48.0404 28.2759 63.5943
lradius 25.384
lwrist -28.8628
lhand -0.107986 20.8395
lfingers 7.12502
lthumb 25.4869 49.1551
rfemur -3.99932 -3.32885 35.19
rtibia 13.1996
rfoot -13.1337 -12.7722
rtoes 12.7503
lfemur -31.3309 -4.07565 -8.45086
ltibia 24.1377
lfoot -5.7926 3.39675
ltoes -14.4839
281
root -2.83188 18.0548 4.27232 -318.23 -74.8427 325.906
lowerback -0.748117 7.02822 7.84089
upperback -1.66926 9.31684 2.48733
thorax -0.493361 4.56177 -1.65376
lowerneck -15.613 -8.514 -9.96928
upperneck 13.3921 -11.3406 11.1954
head 7.93262 -4.98245 3.94036
rclavicle -9.49694e-014 -4.37326e-015
rhumerus -0.690707 17.1987 -72.611
rradius 46.4826
rwrist 3.61048
rhand -12.6849 -40.7451
rfingers 7.12502
rthumb 13.3969 -70.2943
lclavicle -9.49694e-014 -4.37326e-015
lhumerus -48.32 28.6511 63.3125
lradius 24.8891
lwrist -30.0143
lhand 0.301242 20.5734
lfingers 7.12502
lthumb 25.8789 48.8324
rfemur -3.57113 -3.17755 35.2294
rtibia 13.2493
rfoot -13.3811 -12.3475
rtoes 12.1341
lfemur -31.5336 -3.92769 -8.49798
ltibia 23.1635
lfoot -5.54581 3.61444
ltoes -14.3447
282
root -2.99166 18.0387 4.28315 -316.393 -75.3961 324.221
lowerback -0.858981 7.05176 7.84639
upperback -1.71855 9.33842 2.46528
thorax -0.476549 4.57145 -1.66685
lowerneck -15.737 -8.36416 -9.87475
upperneck 13.5578 -11.1414 11.0904
head 7.97399 -4.88554 3.91544
rclavicle -7.74266e-014 -2.14687e-014
rhumerus -1.86754 16.8457 -73.6695
rradius 44.9467
rwrist 3.94996
rhand -12.9181 -40.3244
rfingers 7.12502
rthumb 13.1721 -69.8883
lclavicle -7.74266e-014 -2.14687e-014
lhumerus -48.5857 29.0055 63.0358
lradius 24.4265
lwrist -31.1165
lhand 0.690649 20.3125
lfingers 7.12502
lthumb 26.2517 48.5166
rfemur -3.1597 -3.03607 35.246
rtibia 13.3455
rfoot -13.6173 -11.9132
rtoes 11.4948
lfemur -31.7224 -3.82162 -8.52423
ltibia 22.2569
lfoot -5.28907 3.84712
ltoes -14.1963
283
root -3.15262 18.0225 4.29428 -314.452 -75.9388 322.428
lowerback -0.964711 7.06988 7.84208
upperback -1.76513 9.35328 2.44259
thorax -0.461749 4.57791 -1.6762
lowerneck -15.8659 -8.2127 -9.77833
upperneck 13.7184 -10.9399 10.9873
head 8.01481 -4.78728 3.89113
rclavicle 7.8023e-015 -2.74323e-014
rhumerus -3.03287 16.3595 -74.7197
rradius 43.3348
rwrist 4.27774
rhand -13.1556 -39.927
rfingers 7.12502
rthumb 12.9432 -69.5055
lclavicle 7.8023e-015 -2.74323e-014
lhumerus -48.8355 29.336 62.769
lradius 23.9968
lwrist -32.1594
lhand 1.05051 20.0674
lfingers 7.12502
lthumb 26.5962 48.2197
rfemur -2.76705 -2.90747 35.2377
rtibia 13.4918
rfoot -13.8401 -11.4663
rtoes 10.8349
lfemur -31.8962 -3.758 -8.53131
ltibia 21.4204
lfoot -5.02317 4.09579
ltoes -14.0405
284
root -3.31489 18.0064 4.30573 -312.401 -76.468 320.517
lowerback -1.06425 7.08253 7.8288
upperback -1.80818 9.36147 2.41944
thorax -0.448579 4.58122 -1.68216
lowerneck -15.9982 -8.05937 -9.67942
upperneck 13.8729 -10.7358 10.8862
head 8.05442 -4.68764 3.86738
rclavicle -4.16951e-014 -2.38542e-015
rhumerus -4.18514 15.7276 -75.7504
rradius 41.6585
rwrist 4.5988
rhand -13.4002 -39.5583
rfingers 7.12502
rthumb 12.7074 -69.1517
lclavicle -4.16951e-014 -2.38542e-015
lhumerus -49.0695 29.6486 62.5071
lradius 23.598
lwrist -33.1495
lhand 1.38467 19.8289
lfingers 7.12502
lthumb 26.916 47.9322
rfemur -2.39332 -2.79457 35.2037
rtibia 13.6917
rfoot -14.0468 -11.0041
rtoes 10.161
lfemur -32.0513 -3.7356 -8.51992
ltibia 20.6566
lfoot -4.74816 4.35934
ltoes -13.8635
285
root -3.47853 17.9906 4.31751 -310.233 -76.9804 318.483
lowerback -1.15704 7.08886 7.80879
upperback -1.84779 9.3619 2.39579
thorax -0.437197 4.58079 -1.68609
lowerneck -16.1344 -7.90399 -9.57692
upperneck 14.0218 -10.529 10.7858
head 8.09289 -4.58657 3.84359
rclavicle 3.21534e-014 1.63003e-014
rhumerus -5.32169 14.9402 -76.7501
rradius 39.927
rwrist 4.92336
rhand -13.6465 -39.2193
rfingers 7.12502
rthumb 12.47 -68.8272
lclavicle 3.21534e-014 1.63003e-014
lhumerus -49.2859 29.941 62.2521
lradius 23.2293
lwrist -34.0803
lhand 1.68707 19.6018
lfingers 7.12502
lthumb 27.2053 47.6602
rfemur -2.04078 -2.70003 35.144
rtibia 13.9495
rfoot -14.2317 -10.5239
rtoes 9.47263
lfemur -32.1867 -3.75122 -8.49125
ltibia 19.9695
lfoot -4.47219 4.63119
ltoes -13.663
286
root -3.64361 17.975 4.32958 -307.942 -77.4734 316.317
lowerback -1.24349 7.08858 7.78162
upperback -1.88367 9.35417 2.37303
thorax -0.427403 4.57645 -1.68635
lowerneck -16.2738 -7.74636 -9.47123
upperneck 14.1645 -10.319 10.6853
head 8.12987 -4.48393 3.81969
rclavicle 4.69877e-014 5.04913e-014
rhumerus -6.44106 13.9833 -77.7055
rradius 38.1511
rwrist 5.26729
rhand -13.8904 -38.9112
rfingers 7.12502
rthumb 12.2348 -68.5334
lclavicle 4.69877e-014 5.04913e-014
lhumerus -49.4851 30.2159 62.0044
lradius 22.8897
lwrist -34.951
lhand 1.95252 19.3897
lfingers 7.12502
lthumb 27.4592 47.4081
rfemur -1.71216 -2.62318 35.059
rtibia 14.2687
rfoot -14.3906 -10.0238
rtoes 8.77762
lfemur -32.3019 -3.80069 -8.44661
ltibia 19.3629
lfoot -4.19941 4.90922
ltoes -13.4313
287
root -3.81015 17.96 4.34194 -305.524 -77.9447 314.015
lowerback -1.32292 7.08206 7.74795
upperback -1.91676 9.33887 2.3506
thorax -0.420291 4.56842 -1.68399
lowerneck -16.413 -7.587 -9.36102
upperneck 14.3009 -10.107 10.5839
head 8.16473 -4.38042 3.79504
rclavicle 2.40281e-014 7.95139e-016
rhumerus -7.5437 12.8394 -78.6026
rradius 36.3417
rwrist 5.65107
rhand -14.1284 -38.6292
rfingers 7.12502
rthumb 12.0053 -68.2649
lclavicle 2.40281e-014 7.95139e-016
lhumerus -49.6657 30.4664 61.7669
lradius 22.5795
lwrist -35.755
lhand 2.17973 19.1983
lfingers 7.12502
lthumb 27.6765 47.182
rfemur -1.41071 -2.56289 34.9481
rtibia 14.6541
rfoot -14.5181 -9.50292
rtoes 8.08518
lfemur -32.3951 -3.87803 -8.39012
ltibia 18.8378
lfoot -3.93193 5.19105
ltoes -13.1769
288
root -3.97826 17.9455 4.35463 -302.978 -78.3926 311.575
lowerback -1.39569 7.06731 7.70691
upperback -1.94524 9.31325 2.33046
thorax -0.414444 4.55542 -1.67653
lowerneck -16.5571 -7.42393 -9.2485
upperneck 14.4325 -9.88949 10.4816
head 8.1986 -4.27427 3.77042
rclavicle -5.44918e-014 -8.34896e-015
rhumerus -8.62333 11.5001 -79.4232
rradius 34.5097
rwrist 6.09104
rhand -14.3495 -38.3803
rfingers 7.12502
rthumb 11.7921 -68.0283
lclavicle -5.44918e-014 -8.34896e-015
lhumerus -49.83 30.7051 61.5356
lradius 22.2967
lwrist -36.4957
lhand 2.36493 19.0293
lfingers 7.12502
lthumb 27.8535 46.9844
rfemur -1.13706 -2.51732 34.8108
rtibia 15.1048
rfoot -14.6059 -8.96041
rtoes 7.40071
lfemur -32.4635 -3.97709 -8.32667
ltibia 18.393
lfoot -3.6735 5.47012
ltoes -12.8975
289
root -4.1479 17.9317 4.36761 -300.306 -78.8167 308.999
lowerback -1.46245 7.04489 7.65799
upperback -1.97056 9.27808 2.31083
thorax -0.410702 4.53782 -1.66549
lowerneck -16.7 -7.25717 -9.13073
upperneck 14.5575 -9.66742 10.3778
head 8.22978 -4.1661 3.74512
rclavicle -1.80894e-014 3.29983e-014
rhumerus -9.68336 9.94505 -80.1525
rradius 32.6668
rwrist 6.61623
rhand -14.5448 -38.1579
rfingers 7.12502
rthumb 11.6037 -67.8166
lclavicle -1.80894e-014 3.29983e-014
lhumerus -49.9756 30.9247 61.3131
lradius 22.0402
lwrist -37.1653
lhand 2.50224 18.8841
lfingers 7.12502
lthumb 27.9848 46.8179
rfemur -0.895417 -2.48254 34.6458
rtibia 15.6237
rfoot -14.6438 -8.39897
rtoes 6.70665
lfemur -32.5072 -4.09152 -8.26259
ltibia 18.0293
lfoot -3.42693 5.74076
ltoes -12.5878
